<?xml version="1.0" encoding="UTF-8"?>
<svg width="700pt" height="700pt" version="1.1" viewBox="0 0 700 700" xmlns="http://www.w3.org/2000/svg">
 <g>
  <path d="m358.96 35.445c-45.984-1.2812-91.703 7.3281-134.07 25.242-42.371 17.914-80.398 44.715-111.51 78.594-5.5859 6.0898-8.582 14.113-8.3477 22.371 0.23438 8.2578 3.6797 16.102 9.6055 21.859 5.9219 5.7617 13.859 8.9844 22.121 8.9883h426.49c8.2617-0.003906 16.199-3.2266 22.121-8.9883 5.9258-5.7578 9.3711-13.602 9.6055-21.859 0.23438-8.2578-2.7617-16.281-8.3477-22.371-29.074-31.656-64.203-57.156-103.31-74.992-39.109-17.836-81.395-27.645-124.36-28.844zm-0.48047 17.5c40.621 1.1328 80.605 10.402 117.58 27.266 36.973 16.859 70.191 40.969 97.68 70.898 3.8281 4.1641 4.832 10.195 2.5586 15.371-2.2773 5.1758-7.3945 8.5195-13.051 8.5195h-426.49c-5.6562 0-10.773-3.3438-13.051-8.5195-2.2734-5.1758-1.2695-11.207 2.5586-15.371 29.422-32.031 65.379-57.371 105.44-74.309 40.062-16.934 83.297-25.07 126.77-23.855z"/>
  <path d="m131.25 253.75c-9.3672 0.015625-18.02 5.0195-22.699 13.137-4.6797 8.1172-4.6797 18.109 0 26.227 4.6797 8.1172 13.332 13.121 22.699 13.137h437.5c9.3672-0.015625 18.02-5.0195 22.699-13.137 4.6797-8.1172 4.6797-18.109 0-26.227-4.6797-8.1172-13.332-13.121-22.699-13.137zm0 17.5h437.5c4.832 0 8.75 3.918 8.75 8.75s-3.918 8.75-8.75 8.75h-437.5c-4.832 0-8.75-3.918-8.75-8.75s3.918-8.75 8.75-8.75z"/>
  <path d="m116.82 202.87 57.727 21.648c7.9219 2.9727 16.652 2.9727 24.578 0l51.113-19.168c11.887-4.457 24.984-4.457 36.867 0l51.113 19.168h0.003906c7.9219 2.9727 16.656 2.9727 24.578 0l51.113-19.168h0.003906c11.883-4.457 24.98-4.457 36.867 0l51.113 19.168c7.9258 2.9727 16.656 2.9727 24.578 0l56.695-21.262c4.5156-1.6523 9.5195 0.64453 11.207 5.1445s-0.57031 9.5195-5.0625 11.242l-56.695 21.262c-11.883 4.457-24.98 4.457-36.867 0l-51.113-19.168c-7.9258-2.9727-16.656-2.9727-24.578 0l-51.113 19.168h-0.003906c-11.887 4.457-24.984 4.457-36.867 0l-51.113-19.168h-0.003906c-7.9219-2.9727-16.652-2.9727-24.578 0l-51.113 19.168c-11.887 4.457-24.984 4.457-36.867 0l-57.727-21.648h-0.003907c-2.1875-0.80078-3.9688-2.4453-4.9453-4.5664-0.97266-2.1172-1.0586-4.5391-0.24219-6.7227 0.82031-2.1836 2.4805-3.9531 4.6055-4.9102 2.1289-0.95703 4.5508-1.0234 6.7266-0.1875z"/>
  <path d="m254.43 111.14c0.011719-2.3242-0.90625-4.5586-2.5469-6.207-1.6445-1.6523-3.875-2.5781-6.2031-2.5781-2.3242 0-4.5547 0.92578-6.1992 2.5781-1.6406 1.6484-2.5586 3.8828-2.5508 6.207-0.007812 2.3281 0.91016 4.5625 2.5508 6.2109 1.6445 1.6523 3.875 2.5781 6.1992 2.5781 2.3281 0 4.5586-0.92578 6.2031-2.5781 1.6406-1.6484 2.5586-3.8828 2.5469-6.2109z"/>
  <path d="m286.86 83.727c0.007813-2.3242-0.91016-4.5586-2.5547-6.2031-1.6406-1.6484-3.8711-2.5742-6.1953-2.5742s-4.5547 0.92578-6.1953 2.5742c-1.6445 1.6445-2.5625 3.8789-2.5547 6.2031-0.007813 2.3242 0.91016 4.5586 2.5547 6.2031 1.6406 1.6484 3.8711 2.5742 6.1953 2.5742s4.5547-0.92578 6.1953-2.5742c1.6445-1.6445 2.5625-3.8789 2.5547-6.2031z"/>
  <path d="m301.2 137.3c0.011719-2.3281-0.90625-4.5625-2.5508-6.2109-1.6406-1.6484-3.8711-2.5742-6.1992-2.5742-2.3242 0-4.5547 0.92578-6.1992 2.5742-1.6406 1.6484-2.5586 3.8828-2.5508 6.2109-0.007813 2.3242 0.91016 4.5586 2.5508 6.207 1.6445 1.6484 3.875 2.5742 6.1992 2.5742 2.3281 0 4.5586-0.92578 6.1992-2.5742 1.6445-1.6484 2.5625-3.8828 2.5508-6.207z"/>
  <path d="m354.84 98.055c0.011718-2.3242-0.90625-4.5625-2.5469-6.2109-1.6445-1.6484-3.875-2.5742-6.2031-2.5742-2.3242 0-4.5586 0.92578-6.1992 2.5742s-2.5586 3.8867-2.5508 6.2109c-0.007813 2.3281 0.91016 4.5625 2.5508 6.2109s3.875 2.5781 6.1992 2.5781c2.3281 0 4.5586-0.92969 6.2031-2.5781 1.6406-1.6484 2.5586-3.8828 2.5469-6.2109z"/>
  <path d="m452.76 122.35c0.007812-2.3281-0.91016-4.5625-2.5508-6.2109-1.6406-1.6484-3.875-2.5742-6.1992-2.5742-2.3281 0-4.5586 0.92578-6.2031 2.5742-1.6406 1.6484-2.5586 3.8828-2.5469 6.2109-0.011719 2.3281 0.90625 4.5625 2.5469 6.2109 1.6445 1.6484 3.875 2.5781 6.2031 2.5781 2.3242 0 4.5586-0.92969 6.1992-2.5781 1.6406-1.6484 2.5586-3.8828 2.5508-6.2109z"/>
  <path d="m550.68 141.66c0.003906-2.3242-0.91797-4.5508-2.5586-6.1953s-3.8711-2.5664-6.1914-2.5664c-2.3242 0-4.5508 0.92188-6.1914 2.5664s-2.5625 3.8711-2.5586 6.1953c-0.003907 2.3203 0.91797 4.5508 2.5586 6.1953 1.6406 1.6406 3.8672 2.5664 6.1914 2.5664 2.3203 0 4.5508-0.92578 6.1914-2.5664 1.6406-1.6445 2.5625-3.875 2.5586-6.1953z"/>
  <path d="m484.57 156.61c0.011719-2.3242-0.90625-4.5586-2.5469-6.207-1.6445-1.6523-3.875-2.5781-6.2031-2.5781-2.3242 0-4.5547 0.92578-6.1992 2.5781-1.6406 1.6484-2.5586 3.8828-2.5508 6.207-0.007812 2.3281 0.91016 4.5625 2.5508 6.2109 1.6445 1.6484 3.875 2.5781 6.1992 2.5781 2.3281 0 4.5586-0.92969 6.2031-2.5781 1.6406-1.6484 2.5586-3.8828 2.5469-6.2109z"/>
  <path d="m509.52 111.76c0.011719-2.3281-0.90625-4.5625-2.5508-6.2109-1.6406-1.6484-3.8711-2.5781-6.1992-2.5781s-4.5586 0.92969-6.1992 2.5781c-1.6445 1.6484-2.5586 3.8828-2.5508 6.2109-0.007813 2.3281 0.90625 4.5625 2.5508 6.2109 1.6406 1.6484 3.8711 2.5742 6.1992 2.5742s4.5586-0.92578 6.1992-2.5742c1.6445-1.6484 2.5625-3.8828 2.5508-6.2109z"/>
  <path d="m392.26 79.367c0.003906-2.3242-0.91797-4.5508-2.5586-6.1953s-3.8672-2.5664-6.1914-2.5664c-2.3203 0-4.5508 0.92188-6.1914 2.5664-1.6406 1.6445-2.5625 3.8711-2.5586 6.1953-0.003907 2.3203 0.91797 4.5508 2.5586 6.1953 1.6406 1.6406 3.8711 2.5664 6.1914 2.5664 2.3242 0 4.5508-0.92578 6.1914-2.5664 1.6406-1.6445 2.5625-3.875 2.5586-6.1953z"/>
  <path d="m392.26 142.91c0.003906-2.3242-0.91797-4.5508-2.5586-6.1953-1.6406-1.6445-3.8672-2.5664-6.1914-2.5664-2.3203 0-4.5508 0.92187-6.1914 2.5664-1.6406 1.6445-2.5625 3.8711-2.5586 6.1953-0.003907 2.3242 0.91797 4.5508 2.5586 6.1953 1.6406 1.6406 3.8711 2.5664 6.1914 2.5664 2.3242 0 4.5508-0.92578 6.1914-2.5664 1.6406-1.6445 2.5625-3.8711 2.5586-6.1953z"/>
  <path d="m208.9 141.66c0.011718-2.3281-0.90625-4.5625-2.5508-6.2109-1.6406-1.6484-3.8711-2.5781-6.1992-2.5781-2.3281 0-4.5586 0.92969-6.1992 2.5781-1.6445 1.6484-2.5586 3.8828-2.5508 6.2109-0.007813 2.3281 0.90625 4.5625 2.5508 6.2109 1.6406 1.6484 3.8711 2.5742 6.1992 2.5742 2.3281 0 4.5586-0.92578 6.1992-2.5742 1.6445-1.6484 2.5625-3.8828 2.5508-6.2109z"/>
  <path d="m165.24 149.76c0.007812-2.3242-0.91016-4.5625-2.5508-6.2109-1.6445-1.6484-3.875-2.5742-6.1992-2.5742-2.3281 0-4.5586 0.92578-6.2031 2.5742-1.6406 1.6484-2.5586 3.8867-2.5469 6.2109-0.011719 2.3281 0.90625 4.5625 2.5469 6.2109 1.6445 1.6484 3.875 2.5781 6.2031 2.5781 2.3242 0 4.5547-0.92969 6.1992-2.5781 1.6406-1.6484 2.5586-3.8828 2.5508-6.2109z"/>
  <path d="m258.79 155.99c0.007812-2.3242-0.91016-4.5586-2.5547-6.2031-1.6406-1.6484-3.8711-2.5742-6.1953-2.5742s-4.5547 0.92578-6.1953 2.5742c-1.6445 1.6445-2.5625 3.8789-2.5547 6.2031-0.007813 2.3242 0.91016 4.5586 2.5547 6.2031 1.6406 1.6484 3.8711 2.5742 6.1953 2.5742s4.5547-0.92578 6.1953-2.5742c1.6445-1.6445 2.5625-3.8789 2.5547-6.2031z"/>
  <path d="m344.24 151.01c0.011719-2.3242-0.90625-4.5625-2.5508-6.2109-1.6406-1.6484-3.8711-2.5742-6.1992-2.5742s-4.5586 0.92578-6.1992 2.5742c-1.6445 1.6484-2.5586 3.8867-2.5508 6.2109-0.007812 2.3281 0.90625 4.5625 2.5508 6.2109 1.6406 1.6484 3.8711 2.5781 6.1992 2.5781s4.5586-0.92969 6.1992-2.5781c1.6445-1.6484 2.5625-3.8828 2.5508-6.2109z"/>
  <path d="m440.91 83.727c0.007813-2.3281-0.90625-4.5625-2.5508-6.2109-1.6406-1.6484-3.8711-2.5742-6.1992-2.5742s-4.5586 0.92578-6.1992 2.5742c-1.6445 1.6484-2.5625 3.8828-2.5508 6.2109-0.011718 2.3281 0.90625 4.5625 2.5508 6.2109 1.6406 1.6484 3.8711 2.5781 6.1992 2.5781s4.5586-0.92969 6.1992-2.5781c1.6445-1.6484 2.5586-3.8828 2.5508-6.2109z"/>
  <path d="m136.31 367.5c-8.2109 0.11719-16.059 3.4102-21.891 9.1914-5.8359 5.7773-9.2031 13.594-9.3984 21.801-0.19141 8.2109 2.8008 16.176 8.3555 22.227 40.238 43.809 91.852 75.582 149.09 91.789 57.234 16.207 117.84 16.207 175.08 0 57.234-16.207 108.85-47.98 149.09-91.789 5.5859-6.0898 8.582-14.113 8.3477-22.371-0.23438-8.2578-3.6797-16.102-9.6055-21.859-5.9219-5.7617-13.859-8.9844-22.121-8.9883h-426.49-0.44531zm0.23828 17.5h0.20703 426.49c5.6562 0 10.773 3.3438 13.051 8.5195 2.2734 5.1758 1.2695 11.207-2.5586 15.371-38.047 41.422-86.848 71.473-140.96 86.797-54.117 15.324-111.43 15.324-165.55 0-54.117-15.324-102.92-45.375-140.96-86.797-3.8047-4.1367-4.8203-10.117-2.5977-15.277 2.2188-5.1602 7.2656-8.5352 12.883-8.6133z"/>
  <path d="m116.82 357.13 57.727-21.648c7.9219-2.9727 16.652-2.9727 24.578 0l51.113 19.168c11.887 4.457 24.984 4.457 36.867 0l51.113-19.168h0.003906c7.9219-2.9727 16.656-2.9727 24.578 0l51.113 19.168h0.003906c11.883 4.457 24.98 4.457 36.867 0l51.113-19.168c7.9258-2.9727 16.656-2.9727 24.578 0l56.695 21.262c4.5273 1.6914 9.5664-0.60156 11.262-5.125 1.6953-4.5234-0.59375-9.5625-5.1172-11.262l-56.695-21.262c-11.883-4.457-24.98-4.457-36.867 0l-51.113 19.168c-7.9258 2.9727-16.656 2.9727-24.578 0l-51.113-19.168h-0.003906c-11.887-4.457-24.984-4.457-36.867 0l-51.113 19.168h-0.003906c-7.9219 2.9727-16.652 2.9727-24.578 0l-51.113-19.168c-11.887-4.457-24.984-4.457-36.867 0l-57.727 21.648h-0.003907c-2.1719 0.8125-3.9336 2.457-4.8945 4.5703-0.95703 2.1133-1.0391 4.5195-0.22656 6.6953 0.81641 2.1719 2.4609 3.9336 4.5742 4.8906 2.1133 0.96094 4.5195 1.043 6.6914 0.23047z"/>
  <path d="m254.43 448.86c0.011719-2.3281-0.90625-4.5625-2.5469-6.2109-1.6445-1.6484-3.875-2.5781-6.2031-2.5781-2.3242 0-4.5547 0.92969-6.1992 2.5781-1.6406 1.6484-2.5586 3.8828-2.5508 6.2109-0.007812 2.3242 0.91016 4.5586 2.5508 6.207 1.6445 1.6523 3.875 2.5781 6.1992 2.5781 2.3281 0 4.5586-0.92578 6.2031-2.5781 1.6406-1.6484 2.5586-3.8828 2.5469-6.207z"/>
  <path d="m286.86 476.27c0.007813-2.3281-0.91016-4.5586-2.5547-6.207-1.6406-1.6445-3.8711-2.5703-6.1953-2.5703s-4.5547 0.92578-6.1953 2.5703c-1.6445 1.6484-2.5625 3.8789-2.5547 6.207-0.007813 2.3242 0.91016 4.5547 2.5547 6.2031 1.6406 1.6445 3.8711 2.5703 6.1953 2.5703s4.5547-0.92578 6.1953-2.5703c1.6445-1.6484 2.5625-3.8789 2.5547-6.2031z"/>
  <path d="m301.2 422.7c0.011719-2.3242-0.90625-4.5586-2.5508-6.207-1.6406-1.6484-3.8711-2.5781-6.1992-2.5781-2.3242 0-4.5547 0.92969-6.1992 2.5781-1.6406 1.6484-2.5586 3.8828-2.5508 6.207-0.007813 2.3281 0.91016 4.5625 2.5508 6.2109 1.6445 1.6484 3.875 2.5742 6.1992 2.5742 2.3281 0 4.5586-0.92578 6.1992-2.5742 1.6445-1.6484 2.5625-3.8828 2.5508-6.2109z"/>
  <path d="m354.84 461.95c0.011718-2.3281-0.90625-4.5625-2.5469-6.2109-1.6445-1.6484-3.875-2.5781-6.2031-2.5781-2.3242 0-4.5586 0.92969-6.1992 2.5781s-2.5586 3.8828-2.5508 6.2109c-0.007813 2.3242 0.91016 4.5625 2.5508 6.2109s3.875 2.5742 6.1992 2.5742c2.3281 0 4.5586-0.92578 6.2031-2.5742 1.6406-1.6484 2.5586-3.8867 2.5469-6.2109z"/>
  <path d="m452.76 437.65c0.007812-2.3281-0.91016-4.5625-2.5508-6.2109-1.6406-1.6484-3.875-2.5781-6.1992-2.5781-2.3281 0-4.5586 0.92969-6.2031 2.5781-1.6406 1.6484-2.5586 3.8828-2.5469 6.2109-0.011719 2.3281 0.90625 4.5625 2.5469 6.2109 1.6445 1.6484 3.875 2.5742 6.2031 2.5742 2.3242 0 4.5586-0.92578 6.1992-2.5742 1.6406-1.6484 2.5586-3.8828 2.5508-6.2109z"/>
  <path d="m550.68 418.34c0.003906-2.3242-0.91797-4.5508-2.5586-6.1953s-3.8711-2.5664-6.1914-2.5664c-2.3242 0-4.5508 0.92188-6.1914 2.5664s-2.5625 3.8711-2.5586 6.1953c-0.003907 2.3242 0.91797 4.5508 2.5586 6.1953s3.8672 2.5664 6.1914 2.5664c2.3203 0 4.5508-0.92188 6.1914-2.5664s2.5625-3.8711 2.5586-6.1953z"/>
  <path d="m484.57 403.38c0.011719-2.3242-0.90625-4.5586-2.5469-6.207-1.6445-1.6523-3.875-2.5781-6.2031-2.5781-2.3242 0-4.5547 0.92578-6.1992 2.5781-1.6406 1.6484-2.5586 3.8828-2.5508 6.207-0.007812 2.3281 0.91016 4.5625 2.5508 6.2109 1.6445 1.6484 3.875 2.5781 6.1992 2.5781 2.3281 0 4.5586-0.92969 6.2031-2.5781 1.6406-1.6484 2.5586-3.8828 2.5469-6.2109z"/>
  <path d="m509.52 448.24c0.011719-2.3281-0.90625-4.5625-2.5508-6.2109-1.6406-1.6484-3.8711-2.5742-6.1992-2.5742s-4.5586 0.92578-6.1992 2.5742c-1.6445 1.6484-2.5586 3.8828-2.5508 6.2109-0.007813 2.3281 0.90625 4.5625 2.5508 6.2109 1.6406 1.6484 3.8711 2.5781 6.1992 2.5781s4.5586-0.92969 6.1992-2.5781c1.6445-1.6484 2.5625-3.8828 2.5508-6.2109z"/>
  <path d="m392.26 480.63c0.003906-2.3242-0.91797-4.5508-2.5586-6.1953s-3.8672-2.5664-6.1914-2.5664c-2.3203 0-4.5508 0.92188-6.1914 2.5664-1.6406 1.6445-2.5625 3.8711-2.5586 6.1953-0.003907 2.3242 0.91797 4.5508 2.5586 6.1953 1.6406 1.6445 3.8711 2.5664 6.1914 2.5664 2.3242 0 4.5508-0.92188 6.1914-2.5664s2.5625-3.8711 2.5586-6.1953z"/>
  <path d="m392.26 417.09c0.003906-2.3242-0.91797-4.5508-2.5586-6.1953s-3.8672-2.5664-6.1914-2.5664c-2.3203 0-4.5508 0.92188-6.1914 2.5664-1.6406 1.6445-2.5625 3.8711-2.5586 6.1953-0.003907 2.3242 0.91797 4.5508 2.5586 6.1953 1.6406 1.6445 3.8711 2.5664 6.1914 2.5664 2.3242 0 4.5508-0.92187 6.1914-2.5664 1.6406-1.6445 2.5625-3.8711 2.5586-6.1953z"/>
  <path d="m208.9 418.34c0.011718-2.3281-0.90625-4.5625-2.5508-6.2109-1.6406-1.6484-3.8711-2.5781-6.1992-2.5781-2.3281 0-4.5586 0.92969-6.1992 2.5781-1.6445 1.6484-2.5586 3.8828-2.5508 6.2109-0.007813 2.3281 0.90625 4.5625 2.5508 6.2109 1.6406 1.6484 3.8711 2.5742 6.1992 2.5742 2.3281 0 4.5586-0.92578 6.1992-2.5742 1.6445-1.6484 2.5625-3.8828 2.5508-6.2109z"/>
  <path d="m165.24 410.24c0.007812-2.3281-0.91016-4.5625-2.5508-6.2109-1.6445-1.6484-3.875-2.5781-6.1992-2.5781-2.3281 0-4.5586 0.92969-6.2031 2.5781-1.6406 1.6484-2.5586 3.8828-2.5469 6.2109-0.011719 2.3242 0.90625 4.5625 2.5469 6.2109 1.6445 1.6484 3.875 2.5742 6.2031 2.5742 2.3242 0 4.5547-0.92578 6.1992-2.5742 1.6406-1.6484 2.5586-3.8867 2.5508-6.2109z"/>
  <path d="m258.79 404.01c0.007812-2.3242-0.91016-4.5586-2.5547-6.2031-1.6406-1.6484-3.8711-2.5742-6.1953-2.5742s-4.5547 0.92578-6.1953 2.5742c-1.6445 1.6445-2.5625 3.8789-2.5547 6.2031-0.007813 2.3242 0.91016 4.5586 2.5547 6.2031 1.6406 1.6484 3.8711 2.5742 6.1953 2.5742s4.5547-0.92578 6.1953-2.5742c1.6445-1.6445 2.5625-3.8789 2.5547-6.2031z"/>
  <path d="m344.24 408.99c0.011719-2.3281-0.90625-4.5625-2.5508-6.2109-1.6406-1.6484-3.8711-2.5781-6.1992-2.5781s-4.5586 0.92969-6.1992 2.5781c-1.6445 1.6484-2.5586 3.8828-2.5508 6.2109-0.007812 2.3281 0.90625 4.5625 2.5508 6.2109 1.6406 1.6484 3.8711 2.5742 6.1992 2.5742s4.5586-0.92578 6.1992-2.5742c1.6445-1.6484 2.5625-3.8828 2.5508-6.2109z"/>
  <path d="m440.91 476.27c0.007813-2.3281-0.90625-4.5625-2.5508-6.2109-1.6406-1.6523-3.8711-2.5781-6.1992-2.5781s-4.5586 0.92578-6.1992 2.5781c-1.6445 1.6484-2.5625 3.8828-2.5508 6.2109-0.011718 2.3242 0.90625 4.5625 2.5508 6.2109 1.6406 1.6484 3.8711 2.5742 6.1992 2.5742s4.5586-0.92578 6.1992-2.5742c1.6445-1.6484 2.5586-3.8867 2.5508-6.2109z"/>
 </g>
</svg>
